<svg viewBox="0 0 36 36" fill="currentColor"><path fill-rule="evenodd" d="M11.33 6.68C13.85 5.22 16.78 4.63 19.66 5.01C22.55 5.38 25.24 6.69 27.31 8.74C29.38 10.79 30.71 13.46 31.11 16.35C31.2 16.96 30.77 17.53 30.15 17.61C29.54 17.7 28.97 17.27 28.89 16.65C28.55 14.26 27.44 12.04 25.72 10.34C24.01 8.64 21.77 7.55 19.38 7.24C16.98 6.93 14.54 7.42 12.45 8.63C10.87 9.54 9.54 10.83 8.59 12.38H12C12.62 12.38 13.13 12.88 13.13 13.5C13.13 14.12 12.62 14.63 12 14.63H6.78C6.76 14.63 6.74 14.63 6.72 14.63H6C5.38 14.63 4.88 14.12 4.88 13.5V7.5C4.88 6.88 5.38 6.38 6 6.38C6.62 6.38 7.13 6.88 7.13 7.5V10.51C8.23 8.95 9.65 7.64 11.33 6.68Z"/><path fill-rule="evenodd" d="M5.85 18.39C6.46 18.3 7.03 18.73 7.11 19.35C7.45 21.74 8.56 23.96 10.28 25.66C11.99 27.36 14.23 28.45 16.62 28.76C19.02 29.07 21.46 28.58 23.55 27.37C25.13 26.46 26.46 25.17 27.41 23.63H24C23.38 23.63 22.88 23.12 22.88 22.5C22.88 21.88 23.38 21.38 24 21.38H29.22C29.24 21.37 29.26 21.37 29.28 21.38H30C30.62 21.38 31.13 21.88 31.13 22.5V28.5C31.13 29.12 30.62 29.63 30 29.63C29.38 29.63 28.88 29.12 28.88 28.5V25.49C27.77 27.05 26.35 28.36 24.67 29.32C22.15 30.78 19.22 31.37 16.34 30.99C13.45 30.62 10.76 29.31 8.69 27.26C6.62 25.21 5.29 22.54 4.89 19.65C4.8 19.04 5.23 18.47 5.85 18.39Z"/><path fill-rule="evenodd" d="M17 11.88C17.62 11.88 18.13 12.38 18.13 13V18.53L20.8 21.2C21.23 21.64 21.23 22.36 20.8 22.8C20.36 23.23 19.64 23.23 19.2 22.8L16.2 19.8C15.99 19.58 15.88 19.3 15.88 19V13C15.88 12.38 16.38 11.88 17 11.88Z"/></svg>
