<svg viewBox="0 0 36 36" fill="currentColor"><path d="M15.64 2.12L5.48 8.12C4.72 8.53 4.1 9.14 3.66 9.88C3.23 10.62 3 11.47 3 12.33V23.25C3 24.12 3.24 24.97 3.68 25.72C4.12 26.46 4.76 27.08 5.52 27.49L15.56 33.85C17.11 34.7 18.89 34.7 20.36 33.9L30.57 27.44C32.04 26.64 33 25.02 33 23.25V12.33L32.99 12.02C32.95 11.32 32.76 10.64 32.43 10.02C32.09 9.4 31.63 8.86 31.07 8.44L30.91 8.32L30.9 8.31C30.81 8.24 30.72 8.17 30.62 8.11L20.46 2.12C19.72 1.71 18.89 1.5 18.05 1.5C17.2 1.5 16.37 1.71 15.64 2.12H15.64Z"/></svg>
