<svg viewBox="0 0 36 36" fill="currentColor"><g><path fill-rule="evenodd" d="M3.38 10.48C3.37 10.49 3.37 10.5 3.38 10.52V25.5C3.38 27.78 5.22 29.63 7.5 29.63H28.5C30.78 29.63 32.63 27.78 32.63 25.5V10.52C32.63 10.5 32.63 10.49 32.63 10.48C32.61 8.21 30.77 6.38 28.5 6.38H7.5C5.23 6.38 3.39 8.21 3.38 10.48ZM5.71 9.95C5.94 9.18 6.66 8.63 7.5 8.63H28.5C29.34 8.63 30.06 9.18 30.29 9.95L18 18.15L5.71 9.95ZM30.38 12.6V25.5C30.38 26.54 29.54 27.38 28.5 27.38H7.5C6.46 27.38 5.63 26.54 5.63 25.5V12.6L17.38 20.44C17.75 20.69 18.25 20.69 18.62 20.44L30.38 12.6Z"/></g></svg>
