<svg viewBox="0 0 36 36" fill="currentColor"><path d="M22.5 3.38C22.95 3.38 23.36 3.64 23.53 4.06L28.03 14.56C28.16 14.85 28.16 15.17 28.03 15.46C27.9 15.75 27.65 15.97 27.36 16.07L18.36 19.07C18.13 19.14 17.88 19.14 17.64 19.07L8.64 16.07C8.35 15.97 8.1 15.75 7.97 15.46C7.85 15.17 7.84 14.85 7.97 14.56L12.47 4.06L12.54 3.91C12.75 3.58 13.11 3.38 13.5 3.38H22.5ZM10.52 14.32L18 16.81L25.48 14.32L21.76 5.63H14.24L10.52 14.32Z"/><path d="M13.14 3.43C13.73 3.24 14.37 3.55 14.57 4.14L19.07 17.64C19.26 18.23 18.95 18.87 18.36 19.07C17.77 19.26 17.13 18.95 16.93 18.36L12.43 4.86C12.24 4.27 12.55 3.63 13.14 3.43Z"/><path d="M17.6 3.45C18.19 3.23 18.84 3.52 19.05 4.1L23.55 16.1C23.77 16.69 23.48 17.33 22.9 17.55C22.31 17.77 21.66 17.48 21.45 16.89L16.95 4.9C16.73 4.31 17.02 3.66 17.6 3.45Z"/><path d="M18 16.88C18.43 16.88 18.82 17.12 19.01 17.5L21 21.48L24.93 22.14C25.35 22.21 25.69 22.51 25.82 22.91C25.95 23.31 25.84 23.75 25.55 24.05L22.94 26.65L23.61 31.34C23.67 31.75 23.5 32.17 23.16 32.41C22.82 32.66 22.37 32.69 22 32.51L18 30.51L14 32.51C13.63 32.69 13.18 32.66 12.84 32.41C12.5 32.17 12.33 31.75 12.39 31.34L13.06 26.65L10.45 24.05C10.16 23.75 10.05 23.31 10.18 22.91C10.31 22.51 10.65 22.21 11.07 22.14L15 21.48L16.99 17.5L17.07 17.36C17.28 17.06 17.63 16.88 18 16.88ZM16.76 23C16.6 23.33 16.29 23.55 15.93 23.61L13.59 24L15.05 25.45C15.3 25.7 15.41 26.06 15.36 26.41L14.92 29.53L17.5 28.24C17.81 28.09 18.19 28.09 18.5 28.24L21.08 29.53L20.64 26.41C20.59 26.06 20.7 25.7 20.95 25.45L22.41 24L20.07 23.61C19.71 23.55 19.4 23.33 19.24 23L18 20.52L16.76 23Z"/></svg>
