<svg viewBox="0 0 36 36" fill="currentColor"><path fill-rule="evenodd" d="M28.83 6.24C26.75 4.37 23.96 4.43 21.54 5.34C18.72 6.39 16.84 8.99 16.88 12.01V12.36C12.84 12.14 9.29 10.16 6.91 6.85C6.69 6.53 6.32 6.36 5.94 6.38C5.55 6.4 5.21 6.61 5.02 6.95L6 7.5C5.02 6.95 5.02 6.95 5.02 6.95L5.02 6.95L5.02 6.95L5.01 6.96L4.99 7C4.98 7.02 4.96 7.06 4.93 7.11C4.88 7.2 4.82 7.34 4.74 7.51C4.57 7.86 4.36 8.35 4.15 8.95C3.73 10.16 3.29 11.84 3.27 13.73C3.25 15.63 3.66 17.75 4.93 19.77C5.95 21.37 7.48 22.85 9.69 24.1C7.57 25.29 5.46 25.97 3.04 25.88C2.52 25.86 2.05 26.2 1.92 26.7C1.78 27.2 2 27.74 2.46 27.99C7.61 30.8 13.33 31.82 18.36 30.36L18.36 30.36C24.09 28.69 28.81 24.39 30.61 17.97L30.61 17.96C31.13 16.08 31.39 14.15 31.4 12.2C31.4 12.2 31.4 12.2 31.4 12.2C31.45 12.08 31.53 11.92 31.64 11.7C31.76 11.47 31.89 11.2 32.04 10.91C32.17 10.66 32.31 10.39 32.46 10.09C33.07 8.91 33.81 7.4 34.08 6.32C34.11 6.22 34.13 6.12 34.13 6.02V6.01C34.13 5.44 33.7 4.97 33.14 4.9C32.89 4.87 32.66 4.92 32.46 5.03C31.44 5.52 30.47 5.78 29.37 6.09C29.2 6.13 29.01 6.18 28.83 6.24ZM31.01 7.96C30.61 8.08 30.21 8.19 29.83 8.3C29.48 8.39 29.14 8.48 28.82 8.58C28.4 8.7 27.95 8.57 27.66 8.25C26.41 6.84 24.49 6.64 22.32 7.45C20.35 8.19 19.1 9.97 19.12 11.98L19.13 12V13.5C19.13 14.11 18.64 14.61 18.03 14.62C13.44 14.74 9.28 12.92 6.29 9.65C6.29 9.66 6.28 9.68 6.27 9.7C5.9 10.75 5.54 12.19 5.52 13.75C5.51 15.31 5.84 16.99 6.84 18.56C7.83 20.14 9.55 21.7 12.45 22.97C12.83 23.13 13.08 23.49 13.12 23.9C13.16 24.31 12.97 24.71 12.62 24.94C10.89 26.09 9.1 27.06 7.14 27.62C10.8 28.9 14.49 29.14 17.74 28.2M31.01 7.96C30.84 8.33 30.65 8.7 30.46 9.07C30.32 9.34 30.18 9.61 30.05 9.86C29.89 10.17 29.75 10.46 29.63 10.69C29.52 10.91 29.42 11.12 29.34 11.29C29.3 11.38 29.26 11.47 29.23 11.56L29.23 11.57C29.21 11.62 29.15 11.81 29.15 12.04C29.16 13.84 28.92 15.63 28.44 17.36C26.86 22.99 22.75 26.74 17.74 28.2"/></svg>
